<?xml version="1.0" encoding="UTF-8"?>
<svg xmlns="http://www.w3.org/2000/svg" xmlns:xlink="http://www.w3.org/1999/xlink" viewBox="0 0 98.11 58.5">
  <defs>
    <style>
      .cls-1 {
        fill: #fff;
      }

      .cls-1, .cls-2, .cls-3 {
        mix-blend-mode: overlay;
      }

      .cls-4 {
        fill: url(#radial-gradient);
      }

      .cls-5 {
        fill: url(#linear-gradient);
      }

      .cls-6 {
        isolation: isolate;
      }

      .cls-2 {
        fill: url(#linear-gradient-2);
      }

      .cls-7 {
        fill: #241e1e;
      }

      .cls-8 {
        opacity: .75;
      }

      .cls-9 {
        opacity: .69;
      }

      .cls-3 {
        fill: #4f4f4f;
      }

      .cls-10 {
        fill: #382c2c;
      }
    </style>
    <linearGradient id="linear-gradient" x1="790.5" y1="-651.25" x2="791.48" y2="-707.14" gradientTransform="translate(770.26 -731.53) rotate(92.52) scale(1 -1)" gradientUnits="userSpaceOnUse">
      <stop offset="0" stop-color="#483839"/>
      <stop offset=".19" stop-color="#4b3b3c"/>
      <stop offset=".35" stop-color="#554545"/>
      <stop offset=".5" stop-color="#655755"/>
      <stop offset=".65" stop-color="#7d706c"/>
      <stop offset=".79" stop-color="#9b908a"/>
      <stop offset=".93" stop-color="#c0b6ad"/>
      <stop offset="1" stop-color="#d8cfc4"/>
    </linearGradient>
    <radialGradient id="radial-gradient" cx="806.16" cy="-705.26" fx="806.16" fy="-705.26" r="14.73" gradientTransform="translate(770.26 -731.53) rotate(92.52) scale(1 -1)" gradientUnits="userSpaceOnUse">
      <stop offset="0" stop-color="#6b4287"/>
      <stop offset=".14" stop-color="#6b4287" stop-opacity=".93"/>
      <stop offset=".37" stop-color="#6b4287" stop-opacity=".73"/>
      <stop offset=".68" stop-color="#6b4287" stop-opacity=".4"/>
      <stop offset="1" stop-color="#6b4287" stop-opacity="0"/>
    </radialGradient>
    <linearGradient id="linear-gradient-2" x1="798.8" y1="-724.48" x2="805.57" y2="-676.99" gradientTransform="translate(770.26 -731.53) rotate(92.52) scale(1 -1)" gradientUnits="userSpaceOnUse">
      <stop offset="0" stop-color="#fff"/>
      <stop offset=".11" stop-color="#fff" stop-opacity=".86"/>
      <stop offset=".36" stop-color="#fff" stop-opacity=".56"/>
      <stop offset=".58" stop-color="#fff" stop-opacity=".32"/>
      <stop offset=".77" stop-color="#fff" stop-opacity=".15"/>
      <stop offset=".91" stop-color="#fff" stop-opacity=".04"/>
      <stop offset="1" stop-color="#fff" stop-opacity="0"/>
    </linearGradient>
  </defs>
  <g class="cls-6">
    <g id="Layer_2" data-name="Layer 2">
      <g id="Layer_1-2" data-name="Layer 1">
        <g>
          <g>
            <path class="cls-5" d="M61.71,58.02c-1.32,0-2.64-.08-3.91-.22-3.45-.42-6.5-1.37-8.37-2.62-2.23-1.49-4.16-1.79-6.37-1.79-.29,0-.59,0-.89.01,0,0-.82.02-1.18.03-.62.02-1.26.04-1.93.04-.21,0-.43,0-.65,0-3.96-.08-6.59-2.77-7.29-3.58-.49.08-.98.19-1.54.32-1.4.32-3.15.72-6,.84-.13,0-.27,0-.4,0-4.06,0-7.01-2.95-7.13-3.07-.14-.14-.18-.35-.09-.53.08-.17.25-.28.44-.28,0,0,.02,0,.03,0,.3.02.6.03.89.03.37,0,.73-.01,1.08-.04,4.25-.27,6.82-2.2,8.13-3.57-1.47.5-2.87.75-4.31.75-3.03,0-6.22-1.09-10.03-3.44-3.88-2.38-7.15-2.88-9.2-2.88-.87,0-1.47.09-1.75.14-.07,0-.11.02-.14.03-.04.01-.09.02-.13.02-.19,0-.36-.11-.44-.29-.1-.22,0-.48.2-.6.13-.07.26-.13.4-.2,0,0,.01,0,.01,0,1.98-.96,4.1-1.46,6.14-1.46,2.4,0,4.63.67,6.62,2,1.83,1.22,3.35,1.7,4.42,1.88-3.63-2.32-3.59-5.47-3.58-5.62,0-.19.12-.35.29-.43.06-.03.13-.04.19-.04.11,0,.23.04.32.12.07.06.14.11.21.15.04.02.07.04.1.07,1.54,1.07,3.66,1.61,6.31,1.61,5.05,0,11.15-1.89,16.46-3.74.67-.23,1.33-.43,1.98-.59.15-.04.3-.07.45-.11l.13-.03c1.42-.31,2.84-.47,4.24-.47.75,0,1.51.04,2.26.13.02-.2.18-.37.39-.41,1.98-.38,3.96-.57,5.86-.57,1.18,0,2.35.07,3.47.22.03,0,.06.01.09.02,2.14.29,3.54.76,4.12.99.78-.62,2.09-.96,3.76-.96,1.01,0,2.11.12,3.26.37.15.04.3.06.45.09.68.14,1.38.25,2.13.31.39.03.77.05,1.16.05h.28c1.68-.04,2.95-.38,3.79-1.03.45-.35.78-.77.99-1.28.37-.87.71-2.19,1-3.93.46-2.75.66-5.68.7-6.25-.38-1.04-.72-2.13-1.01-3.22-1.42-5.49-1.12-10.42.78-12.88.82-1.06,1.92-1.62,3.18-1.62,2.69,0,5.94,2.53,9.4,7.3,1.6,2.21,2.93,4.49,3.95,6.77,1.07,2.41,1.76,4.83,2.06,7.2.47,3.74-.13,6.68-.72,8.49-.48,1.46-1.01,2.37-1.2,2.67-.8,7.84-6.22,12.68-6.45,12.88-.09.08-.2.12-.32.12-.09,0-.17-.02-.25-.07-.18-.11-.27-.32-.22-.52l.12-.51c-1.18,1.44-3.07,3.55-5.56,5.64-3.06,2.59-6.26,4.47-9.5,5.61-.43.15-.81.28-1.18.39-.02,0-.04,0-.05.01-3.37,1.03-6.87,1.55-10.42,1.55h0Z"/>
            <path class="cls-10" d="M82.05.96c2.29,0,5.37,2.08,9.01,7.1,1.71,2.36,2.97,4.6,3.9,6.69,1.15,2.59,1.75,4.96,2.02,7.07h0c.45,3.58-.09,6.4-.7,8.28-.57,1.73-1.21,2.66-1.21,2.66-.74,7.81-6.3,12.69-6.3,12.69l.65-2.72s-2.54,3.75-6.86,7.38c-2.55,2.15-5.72,4.25-9.35,5.52-.39.13-.77.27-1.16.38h0c-3.57,1.1-7.1,1.55-10.33,1.55-1.35,0-2.64-.08-3.86-.22-3.53-.43-6.43-1.38-8.16-2.54-2.38-1.59-4.41-1.88-6.63-1.88-.3,0-.6,0-.9.01,0,0,0,0-.01,0-.03,0-.06,0-.09,0,0,0,0,0-.01,0-.94.02-1.92.07-2.99.07-.21,0-.42,0-.64,0-4.39-.09-7.11-3.62-7.11-3.62-1.91.28-3.66,1.02-7.75,1.2-.13,0-.25,0-.38,0-3.91,0-6.79-2.93-6.79-2.93.31.02.62.03.92.03.38,0,.75-.01,1.12-.04,4.89-.32,7.63-2.74,8.83-4.15t.01-.02h.01c.33-.41.54-.72.64-.87.05-.08.08-.12.08-.12-1.91.87-3.77,1.37-5.78,1.37-2.83,0-5.93-1-9.78-3.37-4.03-2.47-7.43-2.95-9.46-2.95-.92,0-1.55.1-1.84.15-.06,0-.12.02-.18.04.11-.07.24-.12.36-.17,0,0,0,0,.02,0h0c1.85-.9,3.88-1.42,5.93-1.42,2.17,0,4.35.58,6.35,1.92,2.64,1.75,4.67,2.05,5.77,2.05.44,0,.73-.05.84-.07.03,0,.05-.02.05-.02-.18-.07-.34-.15-.5-.22-4.68-2.22-4.58-5.87-4.58-5.87.1.08.2.16.31.21h0c1.75,1.25,4.05,1.73,6.62,1.73,5.11,0,11.33-1.92,16.62-3.77.67-.23,1.32-.42,1.94-.58.19-.05.38-.09.57-.14,1.5-.33,2.88-.45,4.13-.45,1.21,0,2.29.12,3.23.29,2.2.4,3.6,1.09,3.9,1.24-1.61-1.43-4.39-1.81-4.39-1.81,2.15-.41,4.08-.57,5.77-.57,1.28,0,2.42.09,3.41.22,0,.01.03.01.03.01,2.8.36,4.35,1.08,4.35,1.08.61-.65,1.91-1.04,3.66-1.04.94,0,2,.11,3.16.36.15.04.31.06.47.09h.03c.67.15,1.4.25,2.14.32.4.03.8.05,1.2.05.1,0,.19,0,.29,0,1.55-.03,3.04-.33,4.07-1.13.49-.38.88-.85,1.14-1.47.44-1.02.77-2.51,1.03-4.04.52-3.11.71-6.4.71-6.4-.41-1.11-.75-2.22-1.03-3.27-2.02-7.79-.44-13.9,3.49-13.9M82.05,0h0c-1.41,0-2.64.63-3.56,1.81-1.99,2.57-2.32,7.66-.86,13.29.28,1.07.61,2.14.99,3.17-.05.75-.26,3.51-.69,6.11-.29,1.71-.61,2.99-.96,3.82-.18.44-.46.79-.84,1.09-.75.59-1.93.9-3.5.93h-.27c-.39,0-.77-.01-1.12-.04-.73-.06-1.41-.16-2.01-.29-.04,0-.09-.02-.13-.02-.12-.02-.23-.04-.34-.07-1.22-.26-2.35-.39-3.39-.39-1.63,0-2.96.32-3.83.9-.71-.26-2.06-.67-3.96-.92-.04,0-.08-.02-.12-.02-1.14-.15-2.33-.23-3.53-.23-1.93,0-3.93.2-5.95.58-.24.05-.45.18-.59.37-.65-.07-1.31-.1-1.97-.1-1.43,0-2.89.16-4.34.48l-.13.03c-.16.04-.32.07-.48.12-.64.16-1.32.36-2,.59-5.27,1.84-11.33,3.71-16.31,3.71-2.55,0-4.58-.51-6.04-1.52-.05-.04-.11-.08-.16-.11-.03-.02-.07-.05-.11-.08-.18-.16-.4-.24-.63-.24-.13,0-.26.03-.38.08-.34.15-.56.48-.57.85,0,.13-.03,2.33,1.93,4.47-.62-.27-1.29-.64-2.02-1.12-2.07-1.38-4.39-2.08-6.89-2.08-2.1,0-4.29.52-6.33,1.5,0,0,0,0,0,0h0c-.15.07-.3.14-.45.22-.42.24-.59.76-.4,1.2.15.36.51.59.88.59.09,0,.17-.01.26-.04l.06-.02c.25-.05.84-.14,1.7-.14,2,0,5.17.49,8.95,2.81,3.89,2.39,7.16,3.51,10.28,3.51.81,0,1.6-.07,2.4-.22-1.41.99-3.45,1.91-6.25,2.09-.36.02-.71.04-1.05.04-.28,0-.57,0-.86-.02-.02,0-.04,0-.06,0-.37,0-.72.22-.87.56-.16.36-.09.79.19,1.07.13.13,3.21,3.21,7.47,3.21.14,0,.28,0,.43-.01,2.88-.13,4.65-.53,6.08-.85.45-.1.86-.2,1.25-.27.95,1.03,3.6,3.46,7.46,3.54.22,0,.44,0,.66,0,.68,0,1.32-.02,1.95-.04.35-.01.7-.02,1.04-.03,0,0,0,0,.01,0,.05,0,.09,0,.14,0,.28,0,.57-.01.86-.01,2.18,0,3.97.29,6.1,1.71,1.93,1.29,5.05,2.27,8.57,2.7,1.29.15,2.63.23,3.97.23,3.59,0,7.13-.53,10.54-1.57.02,0,.04,0,.06-.02.4-.12.8-.25,1.2-.39,3.3-1.16,6.55-3.07,9.66-5.7,2.03-1.7,3.66-3.41,4.85-4.78.07.09.15.16.25.22.15.09.32.14.5.14.23,0,.45-.08.63-.24.24-.21,5.75-5.12,6.6-13.09.24-.4.74-1.31,1.19-2.68.6-1.85,1.22-4.85.75-8.64,0-.02,0-.04,0-.05-.31-2.42-1.01-4.88-2.1-7.33-1.03-2.32-2.38-4.63-4-6.86C88.29,2.59,84.91,0,82.05,0h0Z"/>
          </g>
          <path class="cls-4" d="M38.43,52.99c1.31.03,2.5-.04,3.63-.06.04,0,.07,0,.11,0,1.6-2.51,3.01-5.92,2.82-9.98-.25-5.26-2.18-9.19-3.72-11.54-.18.04-.37.08-.57.14-.62.15-1.27.34-1.94.58-8.12,2.83-18.43,5.85-23.56,1.82,0,0-.11,3.91,5.08,6.09,0,0-2.62.72-6.66-1.96-4.03-2.68-8.78-2.33-12.66-.32,0,0,4.9-1.29,11.48,2.76,6.58,4.04,10.96,4.1,15.56,2,0,0-3.12,5.61-11.6,5.17,0,0,3.07,3.12,7.17,2.92,4.09-.18,5.84-.92,7.75-1.2,0,0,2.72,3.52,7.11,3.62Z"/>
          <g class="cls-8">
            <path class="cls-7" d="M57.86,57.32c-.12-2.8-.63-9.29-2.95-16.64-1.47-4.7-4.03-7.65-6.28-9.44-2.04-.37-4.75-.49-7.93.29,1.17,1.05,3.13,3.48,4.06,8.4.96,5.12-1.29,10.34-2.7,12.99,2.63-.07,4.91.04,7.65,1.86,1.73,1.15,4.62,2.11,8.15,2.54Z"/>
          </g>
          <g class="cls-8">
            <path class="cls-7" d="M72.05,56c.39-.12.77-.24,1.16-.38,3.63-1.27,6.8-3.38,9.35-5.52.27-2.26.54-8.46-3.75-13.22-2.31-2.57-5.16-4.44-7.66-5.74h0c-.91-.08-1.81-.22-2.63-.4-3.33-.71-5.89-.31-6.83.68,0,0-1.54-.72-4.34-1.08,4.09,1.5,12.48,5.42,14.75,12.98,1.62,5.41.93,9.79-.05,12.69Z"/>
          </g>
          <g class="cls-8">
            <path class="cls-7" d="M96.27,30.09c.99-2.98,1.77-8.34-1.31-15.34-3.42-.48-10.59-1.18-16.4.1.27,1.06.62,2.16,1.03,3.27,0,0-.19,3.29-.71,6.4,2.95.13,10.62.93,17.4,5.57Z"/>
          </g>
          <path class="cls-3" d="M72.04,55.99h.01c.39-.11.77-.25,1.16-.38,3.63-1.27,6.8-3.37,9.35-5.52,4.32-3.62,6.86-7.38,6.86-7.38l-.65,2.72s5.56-4.87,6.3-12.69c0,0,.64-.93,1.21-2.66.61-1.87,1.16-4.69.7-8.27h0c-.27-2.11-.87-4.48-2.02-7.08-.93-2.08-2.19-4.33-3.9-6.69-9.87-13.66-15.69-5.53-12.5,6.8.27,1.05.62,2.16,1.03,3.27,0,0-.19,3.29-.71,6.4-.26,1.53-.59,3.02-1.03,4.04-.26.62-.65,1.09-1.14,1.47,2.73.6,4.83,1.78,5.13,3.98.98,6.95-12.44,15.69-20.63,13.03-8.19-2.66-11.39-5.38-17.74-3.28-5.99,1.97-14.23,6.28-25.03,3.87-.64.04-1.31.05-2.03.01,0,0,3.07,3.12,7.17,2.92,4.09-.18,5.84-.92,7.75-1.2,0,0,2.72,3.52,7.11,3.62,1.31.03,2.5-.04,3.63-.06.04,0,.07,0,.11,0,2.59-.07,4.84.06,7.54,1.86,1.73,1.16,4.62,2.12,8.16,2.54,4.13.48,9.12.23,14.18-1.33Z"/>
          <g class="cls-9">
            <path class="cls-1" d="M40,33.12c6.24-2.48,13.6.31,13.6.31-.6-1.56-2.2-2.23-2.2-2.23,6.34-.96,10.56,1.11,10.56,1.11,1.56-1.36,4.59-1.58,7.02-1.49-.16-.03-.32-.05-.47-.09-3.33-.71-5.89-.31-6.83.68,0,0-1.55-.72-4.35-1.08,0,0-.02,0-.03-.01-2.29-.3-5.4-.38-9.17.35,0,0,2.79.38,4.39,1.81-.3-.15-1.69-.85-3.9-1.24-1.92-.34-4.42-.47-7.36.17-.18.04-.37.08-.57.14-.62.15-1.27.34-1.94.58-8.12,2.83-18.43,5.85-23.56,1.82,4.16,6.38,18.56,1.66,24.8-.81Z"/>
            <path class="cls-1" d="M20.23,40.03c-.38.07-2.9.48-6.61-1.98-4.03-2.68-8.78-2.33-12.66-.32.06-.02.12-.03.18-.04,4.33-1.07,8.64-1.12,12.17,1.21,3.33,2.19,6.49,1.28,6.92,1.13Z"/>
            <path class="cls-1" d="M72.04,55.99h.01c.39-.11.77-.25,1.16-.38,3.63-1.27,6.8-3.37,9.35-5.52,4.32-3.62,6.86-7.38,6.86-7.38l-.65,2.72s5.56-4.87,6.3-12.69c0,0,.64-.93,1.21-2.66.61-1.87,1.16-4.69.7-8.27.26,7.28-2.76,9.8-2.76,9.8-.48,6.49-4.03,10.24-4.03,10.24l-.43-1.79s-5.84,10.9-15.96,14.23c-10.11,3.33-19.17,2.16-23.43-.63-4.27-2.78-7.91-1.52-11.98-1.8-4.06-.28-6.7-3.66-6.7-3.66-8.32,3.3-13.36-.06-13.36-.06,5.42.58,8.69-4.26,8.94-4.67-1.36,1.59-4.69,4.48-10.86,4.16,0,0,3.07,3.12,7.17,2.92,4.09-.18,5.84-.92,7.75-1.2,0,0,2.72,3.52,7.11,3.62,1.31.03,2.5-.04,3.63-.06.04,0,.07,0,.11,0,2.59-.07,4.84.06,7.54,1.86,1.73,1.16,4.62,2.12,8.16,2.54,4.13.48,9.12.23,14.18-1.33Z"/>
          </g>
          <path class="cls-3" d="M25.67,38.81c-6.66.34-9.33-3.19-10.15-4.66h0c-.11-.07-.21-.14-.31-.22,0,0-.1,3.65,4.58,5.87,3.24.44,5.89-.98,5.89-.98Z"/>
          <path class="cls-3" d="M28,42.49s-.02.04-.08.12c1.59-1.01,2.85-1.97,2.98-2.07-.25.12-4.29,2.09-8.81,1.89s-7.01-2.14-11.99-4.57c-3.86-1.89-7.39-.89-8.77-.31-.01,0-.02,0-.02,0-.12.05-.25.11-.36.17.06-.02.12-.03.18-.04.93-.18,5.45-.79,11.3,2.8,6.58,4.04,10.96,4.1,15.56,2Z"/>
          <path class="cls-2" d="M61.31,35.95s-9.5-4.82-21.84-.28c-8.71,3.21-13.19,3.57-13.19,3.57,0,0,5.69,1.4,9.17.72,0,0-4.26,3.9-8.84,6.32,0,0,8,.16,14.23-3.02,6.23-3.18,16.74.29,23.53.78,6.78.49,12.3-5.85,12.3-5.85"/>
        </g>
      </g>
    </g>
  </g>
</svg>