<?xml version="1.0" encoding="UTF-8"?>
<svg id="Layer_2" data-name="Layer 2" xmlns="http://www.w3.org/2000/svg" viewBox="0 0 23.28 21.77">
  <defs>
    <style>
      .cls-1 {
        fill: #030001;
      }
    </style>
  </defs>
  <g id="Layer_1-2" data-name="Layer 1">
    <g>
      <path class="cls-1" d="M20.54,16.27s-.66-1.84-2.17-1.75-2.12,3.06-1.87,4.74,1.75,1.17,1.75,1.17c0,0,1.25,1.9,3.3,1.17s2.02-4.32,1.27-5.11-2.28-.23-2.28-.23Z"/>
      <path class="cls-1" d="M18.13,15.06s-6.19-3.17-8.18-6.96c-1.99-3.79-1.73-8.1-1.73-8.1,0,0-4.69,6.61-4.39,9.5s13.93,7,13.93,7l.37-1.45Z"/>
      <path class="cls-1" d="M14.78,14.74s-4.51,2.1-8.08,2.19-5.9-1.86-5.9-1.86C.8,15.08-.02,19.07,0,19.33s3.65,2.28,8.88,1.66c5.23-.62,9.19-4.37,9.19-4.37,0,0-1.81-1.91-3.29-1.87Z"/>
    </g>
  </g>
</svg>